<?xml version="1.0" encoding="UTF-8" standalone="no"?>
<!-- Created with Inkscape (http://www.inkscape.org/) -->

<svg
   xmlns:dc="http://purl.org/dc/elements/1.1/"
   xmlns:cc="http://creativecommons.org/ns#"
   xmlns:rdf="http://www.w3.org/1999/02/22-rdf-syntax-ns#"
   xmlns:svg="http://www.w3.org/2000/svg"
   xmlns="http://www.w3.org/2000/svg"
   xmlns:sodipodi="http://sodipodi.sourceforge.net/DTD/sodipodi-0.dtd"
   xmlns:inkscape="http://www.inkscape.org/namespaces/inkscape"
   width="206mm"
   height="248mm"
   viewBox="0 0 206 248"
   version="1.1"
   id="svg910"
   inkscape:version="0.92.4 (5da689c313, 2019-01-14)"
   sodipodi:docname="lattes-icon.svg">
  <defs
     id="defs904" />
  <sodipodi:namedview
     id="base"
     pagecolor="#ffffff"
     bordercolor="#666666"
     borderopacity="1.0"
     inkscape:pageopacity="0.0"
     inkscape:pageshadow="2"
     inkscape:zoom="0.49497475"
     inkscape:cx="272.63756"
     inkscape:cy="448.84627"
     inkscape:document-units="mm"
     inkscape:current-layer="layer1"
     showgrid="false"
     inkscape:window-width="1600"
     inkscape:window-height="847"
     inkscape:window-x="0"
     inkscape:window-y="26"
     inkscape:window-maximized="1" />
  <metadata
     id="metadata907">
    <rdf:RDF>
      <cc:Work
         rdf:about="">
        <dc:format>image/svg+xml</dc:format>
        <dc:type
           rdf:resource="http://purl.org/dc/dcmitype/StillImage" />
        <dc:title></dc:title>
      </cc:Work>
    </rdf:RDF>
  </metadata>
  <g
     inkscape:label="Layer 1"
     inkscape:groupmode="layer"
     id="layer1"
     transform="translate(0,-49)">
    <path
       style="fill:#ffffff;fill-opacity:1;stroke:#000000;stroke-width:0;stroke-linecap:butt;stroke-linejoin:miter;stroke-miterlimit:4;stroke-dasharray:none;stroke-opacity:1"
       d="m 6.5850199,178.95402 83.3565971,14.40191 c 0,0 -26.74223,-61.04263 -18.10151,-93.753901 C 80.480817,66.890746 126.77035,73.37128 126.77035,73.37128 l 26.15359,2.777373 c 0,0 14.7355,1.08009 4.62895,-5.09185 C 147.44634,64.884865 104.77995,48.027413 80.122127,49.336679 55.464282,50.645944 29.497174,52.609843 9.8581859,86.650756 -9.7808031,120.69168 6.5850199,178.95402 6.5850199,178.95402 Z"
       id="path885"
       inkscape:connector-curvature="0" />
    <ellipse
       style="fill:#ffffff;fill-opacity:1;stroke:#fffffc;stroke-width:0;stroke-linecap:round;stroke-linejoin:miter;stroke-miterlimit:4;stroke-dasharray:none;stroke-opacity:1"
       id="path887"
       ry="31.698355"
       rx="42.572777"
       cy="58.568855"
       cx="163.33748"
       transform="matrix(0.88305092,0.46927718,-0.39171893,0.92008493,0,0)" />
    <path
       style="fill:#ffffff;fill-opacity:1;stroke:#000000;stroke-width:0;stroke-linecap:butt;stroke-linejoin:miter;stroke-miterlimit:4;stroke-dasharray:none;stroke-opacity:1"
       d="m 5.9303879,185.71856 c 0,0 38.8415551,12.2198 59.3533891,12.2198 2.40032,0.21821 89.902913,6.54633 108.450853,-45.60608 0.87284,-6.98276 5.6515,-13.69274 -6.84668,-44.70673 -0.46289,-3.08597 -4.3975,-9.103619 7.17488,0.3086 11.57239,9.4122 37.20409,35.66968 30.22134,84.76716 -0.87285,2.83673 -6.98276,40.36902 -57.38949,71.35498 -1.9639,1.30927 -15.27477,10.03771 -46.26073,20.94826 -30.985953,10.91055 -52.807054,11.56518 -52.807054,11.56518 z"
       id="path891"
       inkscape:connector-curvature="0" />
  </g>
</svg>
